<svg xmlns="http://www.w3.org/2000/svg" data-v-423bf9ae="" class="iconAbove" viewBox="20.27 0.73 103.47 104.54">
    <!----><!----><!---->
        <g data-v-423bf9ae="" id="8ddf0708-0799-4720-8978-d154c8c64094" fill="#B3A09D" transform="matrix(6.369426700005446,0,0,6.369426700005446,-11.974521597477903,88.62725187748867)"> 
    </g><!----><g data-v-423bf9ae="" id="ce81876f-edeb-4bc8-83c4-64036ce5b5fd" transform="matrix(1.0777777777777777,0,0,1.0777777777777777,12.722218110826283,-6.816666666666663)" stroke="none" fill="#FFFFFF">
        <path d="M92 61c-3.71 0-7 1.84-8.99 4.67l-15.5-7.13c.32-1.13.49-2.31.49-3.54 0-5-2.82-9.33-6.95-11.51l5.67-16.58c.42.06.85.09 1.28.09 5.53 0 10-4.48 10-10S73.53 7 68 7c-5.52 0-10 4.48-10 10 0 3.67 1.98 6.89 4.94 8.62L57.27 42.2c-.74-.13-1.5-.2-2.27-.2-3.94 0-7.47 1.75-9.85 4.52L25.64 34.39c.23-.75.36-1.56.36-2.39 0-4.42-3.58-8-8-8s-8 3.58-8 8 3.58 8 8 8c2.14 0 4.08-.84 5.52-2.21l19.51 12.13C42.37 51.48 42 53.2 42 55c0 2.14.52 4.17 1.44 5.95L25.55 74.01A10.93 10.93 0 0 0 18 71c-6.07 0-11 4.92-11 11s4.93 11 11 11c6.08 0 11-4.92 11-11 0-1.71-.39-3.32-1.08-4.76l17.89-13.05a12.945 12.945 0 0 0 8.75 3.8l2.51 20.569A7.98 7.98 0 0 0 52 96c0 4.42 3.58 8 8 8s8-3.58 8-8a8 8 0 0 0-6.95-7.93L58.54 67.5c3.03-.84 5.61-2.77 7.3-5.33l15.5 7.13c-.22.86-.34 1.77-.34 2.7 0 6.08 4.93 11 11 11 6.08 0 11-4.92 11-11s-4.92-11-11-11zM62 17c0-3.31 2.69-6 6-6s6 2.69 6 6c0 3.29-2.66 5.97-5.94 6H68c-1.41 0-2.7-.48-3.72-1.3A5.955 5.955 0 0 1 62 17zM21.99 32.12a3.984 3.984 0 0 1-2.11 3.41A3.999 3.999 0 0 1 14 32c0-2.21 1.79-4 4-4s4 1.79 4 4c0 .04 0 .08-.01.12zM18 89c-3.86 0-7-3.14-7-7s3.14-7 7-7c1.59 0 3.05.53 4.23 1.43a6.955 6.955 0 0 1 2.37 3.24c.26.73.4 1.51.4 2.33 0 3.86-3.14 7-7 7zm42 3c.56 0 1.09.12 1.57.33C63 92.93 64 94.35 64 96c0 2.21-1.79 4-4 4a3.999 3.999 0 1 1 0-8zm3.81-35.16a8.917 8.917 0 0 1-1.67 3.63 8.933 8.933 0 0 1-4.09 2.99 8.815 8.815 0 0 1-3.98.49 8.955 8.955 0 0 1-4.97-2.16 9.098 9.098 0 0 1-2.37-3.24A8.943 8.943 0 0 1 46 55c0-1.03.17-2.01.5-2.93a8.948 8.948 0 0 1 2.11-3.4 8.95 8.95 0 0 1 7.34-2.62c1.38.14 2.66.6 3.78 1.3C62.29 48.94 64 51.77 64 55c0 .63-.07 1.25-.19 1.84zM92 79c-3.86 0-7-3.14-7-7 0-.33.02-.66.08-.98.18-1.38.78-2.64 1.67-3.64A6.965 6.965 0 0 1 92 65c3.86 0 7 3.14 7 7s-3.14 7-7 7z"/>
    </g><!---->
</svg>